<?xml version="1.0" encoding="utf-8"?>
<!-- Generator: Adobe Illustrator 24.2.1, SVG Export Plug-In . SVG Version: 6.00 Build 0)  -->
<svg version="1.1" id="Layer_1" xmlns="http://www.w3.org/2000/svg" xmlns:xlink="http://www.w3.org/1999/xlink" x="0px" y="0px"
	 viewBox="0 0 50 34" style="enable-background:new 0 0 50 34;" xml:space="preserve">
<g>
	<g>
		<path d="M44,0H6C2.7,0,0,2.7,0,5.9v22.2C0,31.3,2.7,34,6,34h38c3.3,0,6-2.7,6-5.9V5.9C50,2.7,47.3,0,44,0z M6,1.8h38
			c2.3,0,4.2,1.9,4.2,4.1H1.8C1.8,3.6,3.7,1.8,6,1.8z M44,32.2H6c-2.3,0-4.2-1.9-4.2-4.1v-16h46.4v16C48.2,30.4,46.3,32.2,44,32.2z"
			/>
	</g>
</g>
</svg>
