<svg xmlns="http://www.w3.org/2000/svg" data-name="Layer 1" viewBox="0 0 512 512"><rect width="497" height="203" x="7.5" y="7.5" fill="#dadadc" rx="30"/><path fill="#aeadb3" d="M474.5,7.5h-45a30,30,0,0,1,30,30v143a30,30,0,0,1-30,30h45a30,30,0,0,0,30-30V37.5A30,30,0,0,0,474.5,7.5Z"/><path fill="#19ac66" d="M58.25,153.25h365.5a30,30,0,0,1,30,30v247a30,30,0,0,1-30,30H58.25a0,0,0,0,1,0,0v-307A0,0,0,0,1,58.25,153.25Z" transform="rotate(90 256 306.75)"/><path fill="#17a454" d="M364.5,109V474.5a30,30,0,0,1-30,30h45a30,30,0,0,0,30-30V109Z"/><path fill="#f69531" d="M151.25,105.25h33.5a10,10,0,0,1,10,10v31a10,10,0,0,1-10,10h-33.5a0,0,0,0,1,0,0v-51A0,0,0,0,1,151.25,105.25Z" transform="rotate(90 173 130.75)"/><path fill="#f48a31" d="M183.5,109v33.5a9.99991,9.99991,0,0,1-10,10h15a9.99991,9.99991,0,0,0,10-10V109Z"/><path fill="#f69531" d="M147.5,406.5a22.90274,22.90274,0,0,0,5.57245,15,23,23,0,1,0,34.8551,0A22.99747,22.99747,0,1,0,147.5,406.5Z"/><path fill="#f48a31" d="M193.5,406.5A22.999,22.999,0,0,0,163,384.75757,22.991,22.991,0,0,1,172.92755,421.5,22.991,22.991,0,0,1,163,458.24243,22.99451,22.99451,0,0,0,187.92755,421.5,22.90286,22.90286,0,0,0,193.5,406.5Z"/><path fill="#3c3b41" d="M170.5,376a30.4933,30.4933,0,0,0-26.55176,45.5,30.5,30.5,0,1,0,53.10352,0A30.4933,30.4933,0,0,0,170.5,376Zm11.74561,50.39551a15.5,15.5,0,1,1-23.49122,0,7.50071,7.50071,0,0,0,0-9.791,15.5,15.5,0,1,1,23.49122,0A7.50071,7.50071,0,0,0,182.24561,426.39551ZM474.5,0H37.5A37.54227,37.54227,0,0,0,0,37.5v143A37.54227,37.54227,0,0,0,37.5,218H95V474.5A37.54227,37.54227,0,0,0,132.5,512h247A37.54227,37.54227,0,0,0,417,474.5V218h57.5A37.54227,37.54227,0,0,0,512,180.5V37.5A37.54227,37.54227,0,0,0,474.5,0ZM402,474.5A22.52554,22.52554,0,0,1,379.5,497h-247A22.52554,22.52554,0,0,1,110,474.5v-358h30v26A17.52,17.52,0,0,0,157.5,160h31A17.52,17.52,0,0,0,206,142.5v-26H356.58136l.41962,28.1123A7.49935,7.49935,0,0,0,364.49756,152c.03808,0,.07666,0,.11426-.001a7.49994,7.49994,0,0,0,7.3872-7.61132L371.58276,116.5H402Zm-247-332v-26h36v26a2.50263,2.50263,0,0,1-2.5,2.5h-31A2.50263,2.50263,0,0,1,155,142.5Zm342,38A22.52554,22.52554,0,0,1,474.5,203H417V116.5h14.5a7.5,7.5,0,0,0,0-15H80.5a7.5,7.5,0,0,0,0,15H95V203H37.5A22.52554,22.52554,0,0,1,15,180.5V37.5A22.52554,22.52554,0,0,1,37.5,15h437A22.52554,22.52554,0,0,1,497,37.5ZM281,213.65186V203.419a7.5,7.5,0,0,0-15,0v9.90527H251V203.419a7.5,7.5,0,0,0-15,0v9.90527H215.23926a7.5,7.5,0,0,0,0,15h5.79492V331.67578h-5.79492a7.5,7.5,0,0,0,0,15H236v9.90527a7.5,7.5,0,0,0,15,0v-9.90527h15v9.90527a7.5,7.5,0,0,0,15,0V346.34814a27.5432,27.5432,0,0,0,23.26074-27.17236V300a27.42026,27.42026,0,0,0-8.655-20,27.42026,27.42026,0,0,0,8.655-20V240.82422A27.5432,27.5432,0,0,0,281,213.65186Zm8.26074,105.52392a12.51408,12.51408,0,0,1-12.5,12.5H236.03418V287.5h40.72656a12.51408,12.51408,0,0,1,12.5,12.5Zm0-59.17578a12.51408,12.51408,0,0,1-12.5,12.5H236.03418V228.32422h40.72656a12.51408,12.51408,0,0,1,12.5,12.5ZM364.5,184a7.49974,7.49974,0,0,0-7.5,7.5v58a7.5,7.5,0,0,0,15,0v-58A7.49974,7.49974,0,0,0,364.5,184Zm0,105a7.49974,7.49974,0,0,0-7.5,7.5v58a7.5,7.5,0,0,0,15,0v-58A7.49974,7.49974,0,0,0,364.5,289Zm0,105a7.49974,7.49974,0,0,0-7.5,7.5v58a7.5,7.5,0,0,0,15,0v-58A7.49974,7.49974,0,0,0,364.5,394Z"/></svg>