<svg height="512" viewBox="0 0 64 64" width="512" xmlns="http://www.w3.org/2000/svg"><g id="hand-money-grown-grow-protect"><path d="m42.28 48.71 3.72-2.15 9.52-5.49a4 4 0 0 1 4 6.93l-21.59 12.46a3.925 3.925 0 0 1 -2 .54h-12.37a4.109 4.109 0 0 1 -1.1-.15l-13.46-3.85v-15h10.51a5.993 5.993 0 0 1 4.25 1.76l3.24 3.24h12a4.025 4.025 0 0 1 2.83 1.17 5.852 5.852 0 0 1 .45.54z" fill="#ffc477"/><path d="m60.98 46.54a4.007 4.007 0 0 0 -5.46-1.47l-9.52 5.49-3.72 2.15a5.852 5.852 0 0 0 -.45-.54 4.025 4.025 0 0 0 -2.83-1.17h-12l-3.24-3.24a5.993 5.993 0 0 0 -4.25-1.76h-10.51v-4h10.51a5.993 5.993 0 0 1 4.25 1.76l3.24 3.24h12a4.025 4.025 0 0 1 2.83 1.17 5.852 5.852 0 0 1 .45.54l3.72-2.15 9.52-5.49a4 4 0 0 1 5.46 5.47z" fill="#ffa733"/><path d="m38 3a14 14 0 1 1 -3 27.68 14.006 14.006 0 0 0 0-27.36 14.14 14.14 0 0 1 3-.32z" fill="#ebbf00"/><path d="m46 41v5.56l-3.72 2.15a5.852 5.852 0 0 0 -.45-.54 4.025 4.025 0 0 0 -2.83-1.17h-12l-3.24-3.24a5.993 5.993 0 0 0 -4.25-1.76h-1.51v-1a2.006 2.006 0 0 1 2-2h24a2.006 2.006 0 0 1 2 2z" fill="#acabb1"/><path d="m46 41v5.56l-3.72 2.15a5.852 5.852 0 0 0 -.45-.54 4.126 4.126 0 0 0 -1.2-.82l1.37-.79v-5.56a2.006 2.006 0 0 0 -2-2h4a2.006 2.006 0 0 1 2 2z" fill="#787680"/><path d="m35 3.32a14.222 14.222 0 1 1 -3-.32 14.015 14.015 0 0 1 3 .32z" fill="#ffcd00"/><path d="m46 17a13.973 13.973 0 0 1 -14 14 14.6 14.6 0 0 1 -2-.14c.34-.05.67-.11 1-.18a14.006 14.006 0 0 0 0-27.36c-.33-.07-.66-.13-1-.18a14.6 14.6 0 0 1 2-.14 13.973 13.973 0 0 1 14 14z" fill="#ddb200"/><path d="m26 3a14.14 14.14 0 0 1 3 .32 14.006 14.006 0 0 0 0 27.36 14 14 0 1 1 -3-27.68z" fill="#ebbf00"/><path d="m9 57v4h-6v-22h6v3z" fill="#2488ff"/><path d="m32 22a2 2 0 0 1 -2-2h-2a4 4 0 0 0 3 3.858v2.142h2v-2.142a3.992 3.992 0 0 0 -1-7.858 2 2 0 1 1 2-2h2a4 4 0 0 0 -3-3.858v-2.142h-2v2.142a3.992 3.992 0 0 0 1 7.858 2 2 0 0 1 0 4z"/><path d="m24.222 24.778 1.414-1.414a9.01 9.01 0 0 1 0-12.728l-1.414-1.414a11.012 11.012 0 0 0 0 15.556z"/><path d="m39.778 24.778a11.012 11.012 0 0 0 0-15.556l-1.414 1.414a9.01 9.01 0 0 1 0 12.728z"/><path d="m6 2h2v2h-2z"/><path d="m6 6h2v2h-2z"/><path d="m4 4h2v2h-2z"/><path d="m8 4h2v2h-2z"/><path d="m4 14h2v2h-2z"/><path d="m4 18h2v2h-2z"/><path d="m2 16h2v2h-2z"/><path d="m6 16h2v2h-2z"/><path d="m6 26h2v2h-2z"/><path d="m6 30h2v2h-2z"/><path d="m4 28h2v2h-2z"/><path d="m8 28h2v2h-2z"/><path d="m56 2h2v2h-2z"/><path d="m56 6h2v2h-2z"/><path d="m58 4h2v2h-2z"/><path d="m54 4h2v2h-2z"/><path d="m58 14h2v2h-2z"/><path d="m58 18h2v2h-2z"/><path d="m60 16h2v2h-2z"/><path d="m56 16h2v2h-2z"/><path d="m56 26h2v2h-2z"/><path d="m56 30h2v2h-2z"/><path d="m58 28h2v2h-2z"/><path d="m54 28h2v2h-2z"/><path d="m61.85 42.04a5.02 5.02 0 0 0 -6.83-1.84l-8.02 4.63v-3.83a3.009 3.009 0 0 0 -3-3h-11v-6.05a14.869 14.869 0 0 0 2.02-.26 15 15 0 1 0 0-29.38 14.865 14.865 0 0 0 -6.04 0 15 15 0 1 0 0 29.38 14.869 14.869 0 0 0 2.02.26v6.05h-11a3.009 3.009 0 0 0 -3 3h-7v-2a1 1 0 0 0 -1-1h-6a1 1 0 0 0 -1 1v22a1 1 0 0 0 1 1h6a1 1 0 0 0 1-1v-2.67l12.19 3.48a5.208 5.208 0 0 0 1.37.19h12.37a4.982 4.982 0 0 0 2.5-.67l21.59-12.46a5 5 0 0 0 1.83-6.83zm-53.85 17.96h-4v-20h4zm43-43a13 13 0 0 1 -11.36 12.88 14.95 14.95 0 0 0 0-25.76 13 13 0 0 1 11.36 12.88zm-38 0a13 13 0 0 1 11.36-12.88 14.95 14.95 0 0 0 0 25.76 13 13 0 0 1 -11.36-12.88zm6 0a13 13 0 1 1 13 13 13.012 13.012 0 0 1 -13-13zm1 23h24a1 1 0 0 1 1 1v4.99l-2.5 1.44a5.009 5.009 0 0 0 -3.5-1.43h-11.59l-2.94-2.95a7 7 0 0 0 -4.96-2.05h-.51a1 1 0 0 1 1-1zm40.42 5.31a2.986 2.986 0 0 1 -1.4 1.82l-21.59 12.47a3.062 3.062 0 0 1 -1.5.4h-12.37a2.805 2.805 0 0 1 -.82-.12l-12.74-3.63v-13.25h9.51a4.945 4.945 0 0 1 3.54 1.47l3.24 3.24a1.033 1.033 0 0 0 .71.29h12a2.956 2.956 0 0 1 2.1.86 4.479 4.479 0 0 1 .36.42 3.045 3.045 0 0 1 .54 1.72 3.009 3.009 0 0 1 -3 3h-12v2h12a4.97 4.97 0 0 0 4.61-6.9l12.41-7.16a3 3 0 0 1 4.4 3.37z"/></g></svg>